<svg width="79" height="24" viewBox="0 0 79 24" fill="none" xmlns="http://www.w3.org/2000/svg">
<path d="M9.10232 0.622101C12.2456 0.622101 14.8649 1.72442 16.9604 3.92906C19.0778 6.1337 20.1364 8.8513 20.1364 12.0819C20.1364 15.3124 19.0778 18.03 16.9604 20.2347C14.8649 22.4393 12.2456 23.5416 9.10232 23.5416H0V0.622101H9.10232ZM9.10232 19.2196C11.0887 19.2196 12.704 18.5648 13.9482 17.2551C15.1924 15.9236 15.8145 14.1992 15.8145 12.0819C15.8145 9.96453 15.1924 8.25102 13.9482 6.94134C12.704 5.60982 11.0887 4.94407 9.10232 4.94407H4.51842V19.2196H9.10232Z" fill="white"/>
<path d="M26.714 17.0914C27.2815 19.1432 28.8204 20.1692 31.3307 20.1692C32.9459 20.1692 34.1683 19.6235 34.9978 18.5321L38.403 20.4966C36.7877 22.8322 34.4084 24 31.2652 24C28.5585 24 26.3866 23.1814 24.7495 21.5443C23.1124 19.9072 22.2938 17.8445 22.2938 15.3561C22.2938 12.8895 23.1015 10.8377 24.7167 9.20055C26.332 7.54161 28.4057 6.71214 30.9378 6.71214C33.3388 6.71214 35.3143 7.54161 36.8641 9.20055C38.4357 10.8595 39.2215 12.9113 39.2215 15.3561C39.2215 15.9018 39.167 16.4802 39.0578 17.0914H26.714ZM26.6485 13.8172H34.9978C34.7577 12.704 34.2556 11.8745 33.4916 11.3288C32.7495 10.7831 31.8982 10.5102 30.9378 10.5102C29.8027 10.5102 28.8641 10.8049 28.1219 11.3943C27.3798 11.9618 26.8886 12.7694 26.6485 13.8172Z" fill="white"/>
<path d="M45.4269 11.8199C45.4269 12.2565 45.7107 12.6166 46.2782 12.9004C46.8676 13.1623 47.577 13.4025 48.4065 13.6207C49.2359 13.8172 50.0654 14.0791 50.8949 14.4065C51.7243 14.7121 52.4228 15.236 52.9904 15.9782C53.5797 16.7203 53.8744 17.648 53.8744 18.7613C53.8744 20.442 53.2414 21.7408 51.9754 22.6576C50.7312 23.5525 49.1704 24 47.2932 24C43.9317 24 41.6397 22.7012 40.4174 20.1037L44.0845 18.0409C44.5647 19.4598 45.6343 20.1692 47.2932 20.1692C48.7994 20.1692 49.5524 19.6999 49.5524 18.7613C49.5524 18.3247 49.2578 17.9754 48.6684 17.7135C48.1009 17.4297 47.4024 17.1787 46.5729 16.9604C45.7434 16.7422 44.914 16.4693 44.0845 16.1419C43.255 15.8145 42.5456 15.3015 41.9563 14.603C41.3887 13.8827 41.105 12.9877 41.105 11.9181C41.105 10.3029 41.6943 9.03683 42.873 8.12006C44.0736 7.18145 45.5579 6.71214 47.326 6.71214C48.6575 6.71214 49.8689 7.01774 50.9603 7.62892C52.0518 8.21828 52.914 9.06958 53.547 10.1828L49.9453 12.1473C49.4215 11.0341 48.5483 10.4775 47.326 10.4775C46.7803 10.4775 46.3219 10.5975 45.9508 10.8377C45.6015 11.0778 45.4269 11.4052 45.4269 11.8199Z" fill="white"/>
<path d="M71.6849 23.5416H66.7735L60.8145 16.1091V23.5416H56.5907V0.622101H60.8145V14.3738L66.4461 7.17053H71.4884L64.9072 15.2578L71.6849 23.5416Z" fill="white"/>
<path d="M75.8886 5.206C75.1901 5.206 74.579 4.95498 74.0551 4.45293C73.553 3.92906 73.302 3.31787 73.302 2.61937C73.302 1.92087 73.553 1.30969 74.0551 0.785811C74.579 0.261937 75.1901 0 75.8886 0C76.609 0 77.2202 0.261937 77.7222 0.785811C78.2461 1.30969 78.508 1.92087 78.508 2.61937C78.508 3.31787 78.2461 3.92906 77.7222 4.45293C77.2202 4.95498 76.609 5.206 75.8886 5.206ZM73.7931 23.5416V7.17053H78.0169V23.5416H73.7931Z" fill="white"/>
</svg>
