<svg width="18" height="18" viewBox="0 0 18 18" fill="none" xmlns="http://www.w3.org/2000/svg">
<path d="M16.745 12.8117V15.1867C16.7459 15.4072 16.7007 15.6255 16.6124 15.8275C16.5241 16.0295 16.3945 16.2108 16.2321 16.3599C16.0696 16.5089 15.8778 16.6224 15.6689 16.6931C15.4601 16.7637 15.2388 16.7899 15.0192 16.7701C12.5831 16.5054 10.243 15.6729 8.18709 14.3397C6.27428 13.1242 4.65256 11.5025 3.43709 9.58966C2.09915 7.52436 1.26653 5.17295 1.00667 2.72591C0.986887 2.50699 1.0129 2.28635 1.08307 2.07803C1.15323 1.86971 1.266 1.67829 1.41419 1.51594C1.56239 1.3536 1.74277 1.22389 1.94384 1.13507C2.14491 1.04626 2.36227 1.00028 2.58209 1.00008H4.95709C5.34129 0.996295 5.71376 1.13235 6.00506 1.38287C6.29637 1.6334 6.48665 1.98131 6.54042 2.36174C6.64066 3.1218 6.82657 3.86807 7.09459 4.58633C7.2011 4.86968 7.22415 5.17763 7.16101 5.47369C7.09787 5.76975 6.95119 6.0415 6.73834 6.25674L5.73292 7.26216C6.8599 9.24413 8.50095 10.8852 10.4829 12.0122L11.4883 11.0067C11.7036 10.7939 11.9753 10.6472 12.2714 10.5841C12.5674 10.5209 12.8754 10.544 13.1588 10.6505C13.877 10.9185 14.6233 11.1044 15.3833 11.2047C15.7679 11.2589 16.1191 11.4526 16.3702 11.7489C16.6212 12.0452 16.7546 12.4235 16.745 12.8117Z" stroke="#6692FF" stroke-width="2" stroke-linecap="round" stroke-linejoin="round"/>
</svg>
