<svg width="18" height="18" viewBox="0 0 18 18" fill="none" xmlns="http://www.w3.org/2000/svg">
<path d="M16.7448 12.8117V15.1867C16.7457 15.4072 16.7005 15.6255 16.6122 15.8275C16.5238 16.0295 16.3943 16.2108 16.2318 16.3599C16.0694 16.5089 15.8775 16.6224 15.6687 16.6931C15.4598 16.7637 15.2385 16.7899 15.0189 16.7701C12.5828 16.5054 10.2428 15.6729 8.18684 14.3397C6.27404 13.1242 4.65232 11.5025 3.43684 9.58966C2.09891 7.52436 1.26628 5.17295 1.00643 2.72591C0.986642 2.50699 1.01266 2.28635 1.08282 2.07803C1.15298 1.86971 1.26575 1.67829 1.41395 1.51594C1.56214 1.3536 1.74252 1.22389 1.94359 1.13507C2.14467 1.04626 2.36203 1.00028 2.58184 1.00008H4.95684C5.34104 0.996295 5.71351 1.13235 6.00482 1.38287C6.29613 1.6334 6.4864 1.98131 6.54018 2.36174C6.64042 3.1218 6.82632 3.86807 7.09434 4.58633C7.20086 4.86968 7.22391 5.17763 7.16077 5.47369C7.09763 5.76975 6.95094 6.0415 6.73809 6.25674L5.73268 7.26216C6.85966 9.24413 8.5007 10.8852 10.4827 12.0122L11.4881 11.0067C11.7033 10.7939 11.9751 10.6472 12.2711 10.5841C12.5672 10.5209 12.8752 10.544 13.1585 10.6505C13.8768 10.9185 14.623 11.1044 15.3831 11.2047C15.7677 11.2589 16.1189 11.4526 16.3699 11.7489C16.621 12.0452 16.7544 12.4235 16.7448 12.8117Z" stroke="#34487D" fill="transparent" stroke-width="2" stroke-linecap="round" stroke-linejoin="round"/>
</svg>
