<svg width="40" height="40" viewBox="0 0 40 40" fill="none" xmlns="http://www.w3.org/2000/svg">
<path d="M20 30C22.6522 30 25.1957 28.9464 27.0711 27.0711C28.9464 25.1957 30 22.6522 30 20C30 17.3478 28.9464 14.8043 27.0711 12.9289C25.1957 11.0536 22.6522 10 20 10C17.3478 10 14.8043 11.0536 12.9289 12.9289C11.0536 14.8043 10 17.3478 10 20C10 22.6522 11.0536 25.1957 12.9289 27.0711C14.8043 28.9464 17.3478 30 20 30V30Z" stroke="#4e71f0" stroke-width="3" fill="transparent" stroke-linecap="round" stroke-linejoin="round"/>
<path d="M36.6667 20H38.3334" stroke="#4e71f0" stroke-width="3" stroke-linecap="round" stroke-linejoin="round"/>
<path d="M20 3.33341V1.66675" stroke="#4e71f0" stroke-width="3" stroke-linecap="round" stroke-linejoin="round"/>
<path d="M20 38.3334V36.6667" stroke="#4e71f0" stroke-width="3" stroke-linecap="round" stroke-linejoin="round"/>
<path d="M33.3334 33.3334L31.6667 31.6667" stroke="#4e71f0" stroke-width="3" stroke-linecap="round" stroke-linejoin="round"/>
<path d="M33.3334 6.66675L31.6667 8.33341" stroke="#4e71f0" stroke-width="3" stroke-linecap="round" stroke-linejoin="round"/>
<path d="M6.66669 33.3334L8.33335 31.6667" stroke="#4e71f0" stroke-width="3" stroke-linecap="round" stroke-linejoin="round"/>
<path d="M6.66669 6.66675L8.33335 8.33341" stroke="#4e71f0" stroke-width="3" stroke-linecap="round" stroke-linejoin="round"/>
<path d="M1.66669 20H3.33335" stroke="#4e71f0" stroke-width="3" stroke-linecap="round" stroke-linejoin="round"/>
</svg>
