<svg width="38" height="24" viewBox="0 0 38 24" fill="none" xmlns="http://www.w3.org/2000/svg">
<path d="M2.5 0H35.5C36.5083 0 37.3333 0.825 37.3333 1.83333C37.3333 2.84167 36.5083 3.66667 35.5 3.66667V23.8333H31.8333V20.1667H24.5V23.8333H20.8333V3.66667H6.16666V23.8333H2.5V3.66667C1.49166 3.66667 0.666664 2.84167 0.666664 1.83333C0.666664 0.825 1.49166 0 2.5 0ZM26.3333 8.25V9.16667H30V8.25C30 7.73667 29.5967 7.33333 29.0833 7.33333H27.25C26.7367 7.33333 26.3333 7.73667 26.3333 8.25ZM26.3333 15.5833V16.5H30V15.5833C30 15.07 29.5967 14.6667 29.0833 14.6667H27.25C26.7367 14.6667 26.3333 15.07 26.3333 15.5833Z" fill="#4e71f0"/>
</svg>
