<svg width="45" height="45" viewBox="0 0 45 45" fill="none" xmlns="http://www.w3.org/2000/svg">
<path d="M5.625 22.5H22.5V25.3125H5.625V22.5Z" fill="#4e71f0"/>
<path d="M2.8125 15.4688H16.875V18.2812H2.8125V15.4688Z" fill="#4e71f0"/>
<path d="M42.0736 23.3522L37.8549 13.5084C37.7466 13.2554 37.5664 13.0398 37.3367 12.8883C37.1069 12.7368 36.8377 12.6561 36.5625 12.6562H32.3438V9.84375C32.3438 9.47079 32.1956 9.1131 31.9319 8.84938C31.6682 8.58566 31.3105 8.4375 30.9375 8.4375H8.43751V11.25H29.5313V28.9069C28.8905 29.279 28.3297 29.7742 27.8813 30.3641C27.4328 30.954 27.1056 31.6268 26.9185 32.3438H18.0816C17.7393 31.0181 16.9253 29.8629 15.7922 29.0945C14.6591 28.3261 13.2846 27.9973 11.9264 28.1698C10.5682 28.3423 9.31961 29.0043 8.41456 30.0315C7.50951 31.0588 7.01019 32.3809 7.01019 33.75C7.01019 35.1191 7.50951 36.4412 8.41456 37.4685C9.31961 38.4957 10.5682 39.1577 11.9264 39.3302C13.2846 39.5027 14.6591 39.1739 15.7922 38.4055C16.9253 37.6371 17.7393 36.4819 18.0816 35.1562H26.9185C27.2244 36.3631 27.924 37.4336 28.9066 38.1982C29.8892 38.9628 31.0987 39.378 32.3438 39.378C33.5888 39.378 34.7983 38.9628 35.781 38.1982C36.7636 37.4336 37.4632 36.3631 37.7691 35.1562H40.7813C41.1542 35.1562 41.5119 35.0081 41.7756 34.7444C42.0394 34.4806 42.1875 34.123 42.1875 33.75V23.9062C42.1876 23.7157 42.1488 23.5272 42.0736 23.3522ZM12.6563 36.5625C12.1 36.5625 11.5562 36.3975 11.0937 36.0885C10.6312 35.7795 10.2707 35.3402 10.0579 34.8263C9.84498 34.3124 9.78928 33.7469 9.8978 33.2013C10.0063 32.6557 10.2742 32.1546 10.6675 31.7613C11.0609 31.3679 11.562 31.1001 12.1076 30.9915C12.6531 30.883 13.2186 30.9387 13.7326 31.1516C14.2465 31.3645 14.6857 31.7249 14.9948 32.1875C15.3038 32.65 15.4688 33.1937 15.4688 33.75C15.468 34.4957 15.1715 35.2106 14.6442 35.7379C14.1169 36.2652 13.402 36.5618 12.6563 36.5625ZM32.3438 15.4688H35.6344L38.6494 22.5H32.3438V15.4688ZM32.3438 36.5625C31.7875 36.5625 31.2437 36.3975 30.7812 36.0885C30.3187 35.7795 29.9582 35.3402 29.7454 34.8263C29.5325 34.3124 29.4768 33.7469 29.5853 33.2013C29.6938 32.6557 29.9617 32.1546 30.355 31.7613C30.7484 31.3679 31.2495 31.1001 31.7951 30.9915C32.3406 30.883 32.9061 30.9387 33.4201 31.1516C33.934 31.3645 34.3732 31.7249 34.6823 32.1875C34.9913 32.65 35.1563 33.1937 35.1563 33.75C35.1555 34.4957 34.859 35.2106 34.3317 35.7379C33.8044 36.2652 33.0895 36.5618 32.3438 36.5625ZM39.375 32.3438H37.7691C37.4593 31.1392 36.7586 30.0715 35.7768 29.308C34.7949 28.5445 33.5875 28.1285 32.3438 28.125V25.3125H39.375V32.3438Z" fill="#4e71f0"/>
</svg>
