<svg width="17" height="18" viewBox="0 0 17 18" fill="none" xmlns="http://www.w3.org/2000/svg">
<path d="M12.6904 0.909435C9.83181 0.363522 6.86322 0.363522 4.00458 0.909435C2.74018 1.18239 1.14594 2.71095 0.871073 3.91196C0.376309 6.25939 0.376309 8.66141 0.871073 11.0088C1.20092 12.2098 2.79516 13.7384 4.00458 14.0114C4.05955 14.0114 4.11453 14.066 4.11453 14.1205V17.5598C4.11453 17.7236 4.33442 17.8328 4.44437 17.669L6.09359 15.9767C6.09359 15.9767 7.41296 14.6119 7.63285 14.3935C7.63285 14.3935 7.68783 14.3389 7.7428 14.3389C9.39202 14.3935 11.0962 14.2297 12.7454 13.9568C14.0098 13.6838 15.6041 12.1553 15.8789 10.9542C16.3737 8.60682 16.3737 6.2048 15.8789 3.85737C15.5491 2.71095 13.9548 1.18239 12.6904 0.909435ZM12.7454 11.1726C12.4705 11.7185 12.1407 12.1553 11.591 12.4282C11.426 12.4828 11.2611 12.5374 11.0962 12.592C10.8763 12.5374 10.7114 12.4828 10.5465 12.4282C8.7873 11.7185 7.13809 10.7359 5.81872 9.31651C5.10406 8.49763 4.49934 7.56958 4.00458 6.58694C3.78468 6.09561 3.56479 5.65888 3.39987 5.16756C3.23495 4.73083 3.50981 4.2941 3.78468 3.96655C4.05955 3.639 4.3894 3.42064 4.77421 3.25686C5.04908 3.09309 5.32395 3.20227 5.54385 3.42064C5.98364 3.96655 6.42343 4.51246 6.75327 5.11297C6.97317 5.49511 6.91819 5.93184 6.53338 6.2048C6.42343 6.25939 6.36845 6.31398 6.25851 6.42316C6.20353 6.47775 6.09358 6.53234 6.03861 6.64153C5.92866 6.8053 5.92866 6.96908 5.98364 7.13285C6.42343 8.38845 7.24803 9.3711 8.51243 9.91701C8.73233 10.0262 8.89725 10.0808 9.17212 10.0808C9.55694 10.0262 9.72186 9.58946 9.99673 9.3711C10.2716 9.15273 10.6014 9.15273 10.9313 9.31651C11.2062 9.48028 11.481 9.69864 11.8109 9.91701C12.0857 10.1354 12.3606 10.2991 12.6355 10.5175C12.8004 10.6267 12.8554 10.8997 12.7454 11.1726ZM10.4365 7.07826C10.3266 7.07826 10.3815 7.07826 10.4365 7.07826C10.2166 7.07826 10.1616 6.96908 10.1067 6.8053C10.1067 6.69612 10.1067 6.53235 10.0517 6.42316C9.99673 6.2048 9.88678 5.98643 9.66689 5.82266C9.55694 5.76807 9.44699 5.71347 9.33704 5.65888C9.17212 5.60429 9.06217 5.60429 8.89725 5.60429C8.73233 5.5497 8.67736 5.44052 8.67736 5.27674C8.67736 5.16756 8.84228 5.05838 8.95222 5.05838C9.83181 5.11297 10.4915 5.60429 10.6014 6.64153C10.6014 6.69612 10.6014 6.8053 10.6014 6.85989C10.6014 6.96908 10.5465 7.07826 10.4365 7.07826ZM9.88678 4.67624C9.61191 4.56706 9.33704 4.45787 9.0072 4.40328C8.89725 4.40328 8.73233 4.34869 8.62238 4.34869C8.45746 4.34869 8.34751 4.23951 8.40249 4.07573C8.40249 3.91196 8.51243 3.80278 8.67736 3.85737C9.22709 3.91196 9.72186 4.02114 10.2166 4.23951C11.2062 4.73083 11.7559 5.5497 11.9208 6.64153C11.9208 6.69612 11.9208 6.75071 11.9208 6.8053C11.9208 6.91449 11.9208 7.02367 11.9208 7.18744C11.9208 7.24203 11.9208 7.29663 11.9208 7.35122C11.8658 7.56958 11.481 7.62417 11.426 7.35122C11.426 7.29663 11.3711 7.18744 11.3711 7.13285C11.3711 6.64153 11.2611 6.15021 11.0412 5.71347C10.7114 5.22215 10.3266 4.8946 9.88678 4.67624ZM12.8554 7.95172C12.6904 7.95172 12.5805 7.78795 12.5805 7.62417C12.5805 7.29663 12.5255 6.96908 12.4705 6.64153C12.2507 4.8946 10.8213 3.47523 9.11715 3.20227C8.84228 3.14768 8.56741 3.14768 8.34751 3.09309C8.18259 3.09309 7.96269 3.09309 7.90772 2.87472C7.85275 2.71095 8.01767 2.54718 8.18259 2.54718C8.23756 2.54718 8.29254 2.54718 8.29254 2.54718C10.5465 2.60177 8.40249 2.54718 8.29254 2.54718C10.6014 2.60177 12.5255 4.13033 12.9103 6.42316C12.9653 6.8053 13.0203 7.18744 13.0203 7.62417C13.1302 7.78795 13.0203 7.95172 12.8554 7.95172Z" fill="white"/>
</svg>
