<svg width="18" height="10" viewBox="0 0 18 10" fill="none" xmlns="http://www.w3.org/2000/svg">
<path fill-rule="evenodd" clip-rule="evenodd" d="M8.50892 9.70131H9.52925C9.52925 9.70131 9.83747 9.66748 9.99481 9.49785C10.1397 9.34212 10.135 9.04967 10.135 9.04967C10.135 9.04967 10.1151 7.68056 10.7505 7.47895C11.3769 7.28035 12.1813 8.80217 13.0338 9.38731C13.6785 9.83016 14.1684 9.73306 14.1684 9.73306L16.448 9.70131C16.448 9.70131 17.6405 9.62785 17.0751 8.69024C17.0287 8.61354 16.7458 7.99665 15.3802 6.72905C13.9508 5.40235 14.1422 5.61694 15.864 3.32205C16.9126 1.92444 17.3319 1.07118 17.2009 0.705734C17.076 0.357664 16.3048 0.449664 16.3048 0.449664L13.7381 0.465654C13.7381 0.465654 13.5478 0.439699 13.4067 0.524052C13.2688 0.606782 13.18 0.799588 13.18 0.799588C13.18 0.799588 12.7738 1.88111 12.232 2.80087C11.0891 4.74167 10.6321 4.8441 10.4453 4.7236C10.0108 4.44273 10.1193 3.59527 10.1193 2.99321C10.1193 1.11243 10.4045 0.328234 9.56378 0.125233C9.28477 0.057797 9.07945 0.0133035 8.36593 0.00611963C7.45011 -0.0033816 6.67495 0.00890018 6.23604 0.223952C5.94405 0.366934 5.7188 0.685573 5.85599 0.70388C6.02562 0.72659 6.40984 0.807467 6.61354 1.08486C6.87656 1.44266 6.86729 2.24632 6.86729 2.24632C6.86729 2.24632 7.01838 4.46034 6.51435 4.73541C6.16837 4.92405 5.69377 4.5389 4.67482 2.77816C4.15272 1.87624 3.75853 0.879305 3.75853 0.879305C3.75853 0.879305 3.68252 0.692988 3.54696 0.593341C3.38242 0.472606 3.15254 0.434138 3.15254 0.434138L0.713505 0.450128C0.713505 0.450128 0.34736 0.460325 0.212952 0.619528C0.0933755 0.76112 0.203451 1.05404 0.203451 1.05404C0.203451 1.05404 2.11297 5.52147 4.27507 7.77279C6.25759 9.83688 8.50892 9.70131 8.50892 9.70131Z" fill="white"/>
</svg>
