<?xml version="1.0" encoding="UTF-8"?><!DOCTYPE svg PUBLIC "-//W3C//DTD SVG 1.1//EN" "http://www.w3.org/Graphics/SVG/1.1/DTD/svg11.dtd"><svg xmlns="http://www.w3.org/2000/svg" xmlns:xlink="http://www.w3.org/1999/xlink"><defs/><symbol id="instagram" viewBox="0 0 13 13">
<path d="M10.9356 0H1.81442C0.784614 0 0 0.784616 0 1.81442V10.9356C0 11.9654 0.784614 12.75 1.81442 12.75H10.9356C11.9654 12.75 12.75 11.9654 12.75 10.9356V1.81442C12.75 0.784616 11.9654 0 10.9356 0ZM6.375 10.2C8.48365 10.2 10.2 8.53269 10.2 6.52211C10.2 6.17885 10.151 5.78654 10.0529 5.49231H11.1317V10.6904C11.1317 10.9356 10.9356 11.1808 10.6413 11.1808H2.10866C1.86346 11.1808 1.61827 10.9846 1.61827 10.6904V5.44327H2.74616C2.64808 5.78654 2.59904 6.12981 2.59904 6.47308C2.55 8.53269 4.26635 10.2 6.375 10.2ZM6.375 8.72885C5.00192 8.72885 3.92308 7.65 3.92308 6.32596C3.92308 5.00192 5.00192 3.92308 6.375 3.92308C7.74808 3.92308 8.82692 5.00192 8.82692 6.32596C8.82692 7.69904 7.74808 8.72885 6.375 8.72885ZM11.0827 3.48173C11.0827 3.77596 10.8375 4.02115 10.5433 4.02115H9.17019C8.87596 4.02115 8.63077 3.77596 8.63077 3.48173V2.15769C8.63077 1.86346 8.87596 1.61827 9.17019 1.61827H10.5433C10.8375 1.61827 11.0827 1.86346 11.0827 2.15769V3.48173Z" fill="white"/>
</symbol><symbol id="logo" viewBox="0 0 79 24">
<path d="M9.10232 0.622101C12.2456 0.622101 14.8649 1.72442 16.9604 3.92906C19.0778 6.1337 20.1364 8.8513 20.1364 12.0819C20.1364 15.3124 19.0778 18.03 16.9604 20.2347C14.8649 22.4393 12.2456 23.5416 9.10232 23.5416H0V0.622101H9.10232ZM9.10232 19.2196C11.0887 19.2196 12.704 18.5648 13.9482 17.2551C15.1924 15.9236 15.8145 14.1992 15.8145 12.0819C15.8145 9.96453 15.1924 8.25102 13.9482 6.94134C12.704 5.60982 11.0887 4.94407 9.10232 4.94407H4.51842V19.2196H9.10232Z" fill="white"/>
<path d="M26.714 17.0914C27.2815 19.1432 28.8204 20.1692 31.3307 20.1692C32.9459 20.1692 34.1683 19.6235 34.9978 18.5321L38.403 20.4966C36.7877 22.8322 34.4084 24 31.2652 24C28.5585 24 26.3866 23.1814 24.7495 21.5443C23.1124 19.9072 22.2938 17.8445 22.2938 15.3561C22.2938 12.8895 23.1015 10.8377 24.7167 9.20055C26.332 7.54161 28.4057 6.71214 30.9378 6.71214C33.3388 6.71214 35.3143 7.54161 36.8641 9.20055C38.4357 10.8595 39.2215 12.9113 39.2215 15.3561C39.2215 15.9018 39.167 16.4802 39.0578 17.0914H26.714ZM26.6485 13.8172H34.9978C34.7577 12.704 34.2556 11.8745 33.4916 11.3288C32.7495 10.7831 31.8982 10.5102 30.9378 10.5102C29.8027 10.5102 28.8641 10.8049 28.1219 11.3943C27.3798 11.9618 26.8886 12.7694 26.6485 13.8172Z" fill="white"/>
<path d="M45.4269 11.8199C45.4269 12.2565 45.7107 12.6166 46.2782 12.9004C46.8676 13.1623 47.577 13.4025 48.4065 13.6207C49.2359 13.8172 50.0654 14.0791 50.8949 14.4065C51.7243 14.7121 52.4228 15.236 52.9904 15.9782C53.5797 16.7203 53.8744 17.648 53.8744 18.7613C53.8744 20.442 53.2414 21.7408 51.9754 22.6576C50.7312 23.5525 49.1704 24 47.2932 24C43.9317 24 41.6397 22.7012 40.4174 20.1037L44.0845 18.0409C44.5647 19.4598 45.6343 20.1692 47.2932 20.1692C48.7994 20.1692 49.5524 19.6999 49.5524 18.7613C49.5524 18.3247 49.2578 17.9754 48.6684 17.7135C48.1009 17.4297 47.4024 17.1787 46.5729 16.9604C45.7434 16.7422 44.914 16.4693 44.0845 16.1419C43.255 15.8145 42.5456 15.3015 41.9563 14.603C41.3887 13.8827 41.105 12.9877 41.105 11.9181C41.105 10.3029 41.6943 9.03683 42.873 8.12006C44.0736 7.18145 45.5579 6.71214 47.326 6.71214C48.6575 6.71214 49.8689 7.01774 50.9603 7.62892C52.0518 8.21828 52.914 9.06958 53.547 10.1828L49.9453 12.1473C49.4215 11.0341 48.5483 10.4775 47.326 10.4775C46.7803 10.4775 46.3219 10.5975 45.9508 10.8377C45.6015 11.0778 45.4269 11.4052 45.4269 11.8199Z" fill="white"/>
<path d="M71.6849 23.5416H66.7735L60.8145 16.1091V23.5416H56.5907V0.622101H60.8145V14.3738L66.4461 7.17053H71.4884L64.9072 15.2578L71.6849 23.5416Z" fill="white"/>
<path d="M75.8886 5.206C75.1901 5.206 74.579 4.95498 74.0551 4.45293C73.553 3.92906 73.302 3.31787 73.302 2.61937C73.302 1.92087 73.553 1.30969 74.0551 0.785811C74.579 0.261937 75.1901 0 75.8886 0C76.609 0 77.2202 0.261937 77.7222 0.785811C78.2461 1.30969 78.508 1.92087 78.508 2.61937C78.508 3.31787 78.2461 3.92906 77.7222 4.45293C77.2202 4.95498 76.609 5.206 75.8886 5.206ZM73.7931 23.5416V7.17053H78.0169V23.5416H73.7931Z" fill="white"/>
</symbol><symbol id="phone" viewBox="0 0 18 18">
<path d="M16.7448 12.8117V15.1867C16.7457 15.4072 16.7005 15.6255 16.6122 15.8275C16.5238 16.0295 16.3943 16.2108 16.2318 16.3599C16.0694 16.5089 15.8775 16.6224 15.6687 16.6931C15.4598 16.7637 15.2385 16.7899 15.0189 16.7701C12.5828 16.5054 10.2428 15.6729 8.18684 14.3397C6.27404 13.1242 4.65232 11.5025 3.43684 9.58966C2.09891 7.52436 1.26628 5.17295 1.00643 2.72591C0.986642 2.50699 1.01266 2.28635 1.08282 2.07803C1.15298 1.86971 1.26575 1.67829 1.41395 1.51594C1.56214 1.3536 1.74252 1.22389 1.94359 1.13507C2.14467 1.04626 2.36203 1.00028 2.58184 1.00008H4.95684C5.34104 0.996295 5.71351 1.13235 6.00482 1.38287C6.29613 1.6334 6.4864 1.98131 6.54018 2.36174C6.64042 3.1218 6.82632 3.86807 7.09434 4.58633C7.20086 4.86968 7.22391 5.17763 7.16077 5.47369C7.09763 5.76975 6.95094 6.0415 6.73809 6.25674L5.73268 7.26216C6.85966 9.24413 8.5007 10.8852 10.4827 12.0122L11.4881 11.0067C11.7033 10.7939 11.9751 10.6472 12.2711 10.5841C12.5672 10.5209 12.8752 10.544 13.1585 10.6505C13.8768 10.9185 14.623 11.1044 15.3831 11.2047C15.7677 11.2589 16.1189 11.4526 16.3699 11.7489C16.621 12.0452 16.7544 12.4235 16.7448 12.8117Z" stroke="#34487D" fill="transparent" stroke-width="2" stroke-linecap="round" stroke-linejoin="round"/>
</symbol><symbol id="play" viewBox="0 0 24 24">
<path d="M5 3L19 12L5 21V3Z" stroke="white" fill="transparent" stroke-width="2" stroke-linecap="round" stroke-linejoin="round"/>
</symbol><symbol id="pointer-2" viewBox="0 0 40 43">
<path opacity="0.4" d="M38.9149 32.9753C29.5661 33.3932 8.89483 29.2753 1.00001 9.46056" fill="transparent" stroke="white"/>
</symbol><symbol id="pointer" viewBox="0 0 40 43">
<path opacity="0.4" d="M38.9149 32.9748C29.5661 33.3927 8.89483 29.2748 1.00001 9.46007" stroke="white" fill="transparent" stroke-dasharray="2 2"/>
</symbol><symbol id="viber" viewBox="0 0 17 18">
<path d="M12.6904 0.909435C9.83181 0.363522 6.86322 0.363522 4.00458 0.909435C2.74018 1.18239 1.14594 2.71095 0.871073 3.91196C0.376309 6.25939 0.376309 8.66141 0.871073 11.0088C1.20092 12.2098 2.79516 13.7384 4.00458 14.0114C4.05955 14.0114 4.11453 14.066 4.11453 14.1205V17.5598C4.11453 17.7236 4.33442 17.8328 4.44437 17.669L6.09359 15.9767C6.09359 15.9767 7.41296 14.6119 7.63285 14.3935C7.63285 14.3935 7.68783 14.3389 7.7428 14.3389C9.39202 14.3935 11.0962 14.2297 12.7454 13.9568C14.0098 13.6838 15.6041 12.1553 15.8789 10.9542C16.3737 8.60682 16.3737 6.2048 15.8789 3.85737C15.5491 2.71095 13.9548 1.18239 12.6904 0.909435ZM12.7454 11.1726C12.4705 11.7185 12.1407 12.1553 11.591 12.4282C11.426 12.4828 11.2611 12.5374 11.0962 12.592C10.8763 12.5374 10.7114 12.4828 10.5465 12.4282C8.7873 11.7185 7.13809 10.7359 5.81872 9.31651C5.10406 8.49763 4.49934 7.56958 4.00458 6.58694C3.78468 6.09561 3.56479 5.65888 3.39987 5.16756C3.23495 4.73083 3.50981 4.2941 3.78468 3.96655C4.05955 3.639 4.3894 3.42064 4.77421 3.25686C5.04908 3.09309 5.32395 3.20227 5.54385 3.42064C5.98364 3.96655 6.42343 4.51246 6.75327 5.11297C6.97317 5.49511 6.91819 5.93184 6.53338 6.2048C6.42343 6.25939 6.36845 6.31398 6.25851 6.42316C6.20353 6.47775 6.09358 6.53234 6.03861 6.64153C5.92866 6.8053 5.92866 6.96908 5.98364 7.13285C6.42343 8.38845 7.24803 9.3711 8.51243 9.91701C8.73233 10.0262 8.89725 10.0808 9.17212 10.0808C9.55694 10.0262 9.72186 9.58946 9.99673 9.3711C10.2716 9.15273 10.6014 9.15273 10.9313 9.31651C11.2062 9.48028 11.481 9.69864 11.8109 9.91701C12.0857 10.1354 12.3606 10.2991 12.6355 10.5175C12.8004 10.6267 12.8554 10.8997 12.7454 11.1726ZM10.4365 7.07826C10.3266 7.07826 10.3815 7.07826 10.4365 7.07826C10.2166 7.07826 10.1616 6.96908 10.1067 6.8053C10.1067 6.69612 10.1067 6.53235 10.0517 6.42316C9.99673 6.2048 9.88678 5.98643 9.66689 5.82266C9.55694 5.76807 9.44699 5.71347 9.33704 5.65888C9.17212 5.60429 9.06217 5.60429 8.89725 5.60429C8.73233 5.5497 8.67736 5.44052 8.67736 5.27674C8.67736 5.16756 8.84228 5.05838 8.95222 5.05838C9.83181 5.11297 10.4915 5.60429 10.6014 6.64153C10.6014 6.69612 10.6014 6.8053 10.6014 6.85989C10.6014 6.96908 10.5465 7.07826 10.4365 7.07826ZM9.88678 4.67624C9.61191 4.56706 9.33704 4.45787 9.0072 4.40328C8.89725 4.40328 8.73233 4.34869 8.62238 4.34869C8.45746 4.34869 8.34751 4.23951 8.40249 4.07573C8.40249 3.91196 8.51243 3.80278 8.67736 3.85737C9.22709 3.91196 9.72186 4.02114 10.2166 4.23951C11.2062 4.73083 11.7559 5.5497 11.9208 6.64153C11.9208 6.69612 11.9208 6.75071 11.9208 6.8053C11.9208 6.91449 11.9208 7.02367 11.9208 7.18744C11.9208 7.24203 11.9208 7.29663 11.9208 7.35122C11.8658 7.56958 11.481 7.62417 11.426 7.35122C11.426 7.29663 11.3711 7.18744 11.3711 7.13285C11.3711 6.64153 11.2611 6.15021 11.0412 5.71347C10.7114 5.22215 10.3266 4.8946 9.88678 4.67624ZM12.8554 7.95172C12.6904 7.95172 12.5805 7.78795 12.5805 7.62417C12.5805 7.29663 12.5255 6.96908 12.4705 6.64153C12.2507 4.8946 10.8213 3.47523 9.11715 3.20227C8.84228 3.14768 8.56741 3.14768 8.34751 3.09309C8.18259 3.09309 7.96269 3.09309 7.90772 2.87472C7.85275 2.71095 8.01767 2.54718 8.18259 2.54718C8.23756 2.54718 8.29254 2.54718 8.29254 2.54718C10.5465 2.60177 8.40249 2.54718 8.29254 2.54718C10.6014 2.60177 12.5255 4.13033 12.9103 6.42316C12.9653 6.8053 13.0203 7.18744 13.0203 7.62417C13.1302 7.78795 13.0203 7.95172 12.8554 7.95172Z" fill="white"/>
</symbol><symbol id="whatsapp" viewBox="0 0 17 17">
<path d="M13.9451 3.04687C12.4634 1.57031 10.4878 0.75 8.40244 0.75C4.06707 0.75 0.554877 4.25 0.554877 8.57031C0.554877 9.9375 0.939024 11.3047 1.59756 12.4531L0.5 16.5L4.67073 15.4062C5.82317 16.0078 7.08536 16.3359 8.40244 16.3359C12.7378 16.3359 16.25 12.8359 16.25 8.51563C16.1951 6.49219 15.4268 4.52344 13.9451 3.04687ZM12.189 11.3594C12.0244 11.7969 11.2561 12.2344 10.872 12.2891C10.5427 12.3437 10.1037 12.3438 9.66463 12.2344C9.39024 12.125 9.0061 12.0156 8.56707 11.7969C6.59146 10.9766 5.32927 9.00781 5.21951 8.84375C5.10976 8.73437 4.39634 7.80469 4.39634 6.82031C4.39634 5.83594 4.89024 5.39844 5.05488 5.17969C5.21951 4.96094 5.43902 4.96094 5.60366 4.96094C5.71341 4.96094 5.87805 4.96094 5.9878 4.96094C6.09756 4.96094 6.26219 4.90625 6.42683 5.28906C6.59146 5.67187 6.97561 6.65625 7.03049 6.71094C7.08536 6.82031 7.08536 6.92969 7.03049 7.03906C6.97561 7.14844 6.92073 7.25781 6.81097 7.36719C6.70122 7.47656 6.59146 7.64062 6.53658 7.69531C6.42683 7.80469 6.31707 7.91406 6.42683 8.07812C6.53659 8.29687 6.92073 8.89844 7.52439 9.44531C8.29268 10.1016 8.89634 10.3203 9.11585 10.4297C9.33537 10.5391 9.44512 10.4844 9.55488 10.375C9.66463 10.2656 10.0488 9.82812 10.1585 9.60938C10.2683 9.39062 10.4329 9.44531 10.5976 9.5C10.7622 9.55469 11.75 10.0469 11.9146 10.1562C12.1341 10.2656 12.2439 10.3203 12.2988 10.375C12.3537 10.5391 12.3537 10.9219 12.189 11.3594Z" fill="white"/>
</symbol></svg>