<?xml version="1.0" encoding="UTF-8"?><!DOCTYPE svg PUBLIC "-//W3C//DTD SVG 1.1//EN" "http://www.w3.org/Graphics/SVG/1.1/DTD/svg11.dtd"><svg xmlns="http://www.w3.org/2000/svg" xmlns:xlink="http://www.w3.org/1999/xlink"><defs/><symbol id="instagram" viewBox="0 0 13 13">
<path d="M10.9356 0H1.81442C0.784614 0 0 0.784616 0 1.81442V10.9356C0 11.9654 0.784614 12.75 1.81442 12.75H10.9356C11.9654 12.75 12.75 11.9654 12.75 10.9356V1.81442C12.75 0.784616 11.9654 0 10.9356 0ZM6.375 10.2C8.48365 10.2 10.2 8.53269 10.2 6.52211C10.2 6.17885 10.151 5.78654 10.0529 5.49231H11.1317V10.6904C11.1317 10.9356 10.9356 11.1808 10.6413 11.1808H2.10866C1.86346 11.1808 1.61827 10.9846 1.61827 10.6904V5.44327H2.74616C2.64808 5.78654 2.59904 6.12981 2.59904 6.47308C2.55 8.53269 4.26635 10.2 6.375 10.2ZM6.375 8.72885C5.00192 8.72885 3.92308 7.65 3.92308 6.32596C3.92308 5.00192 5.00192 3.92308 6.375 3.92308C7.74808 3.92308 8.82692 5.00192 8.82692 6.32596C8.82692 7.69904 7.74808 8.72885 6.375 8.72885ZM11.0827 3.48173C11.0827 3.77596 10.8375 4.02115 10.5433 4.02115H9.17019C8.87596 4.02115 8.63077 3.77596 8.63077 3.48173V2.15769C8.63077 1.86346 8.87596 1.61827 9.17019 1.61827H10.5433C10.8375 1.61827 11.0827 1.86346 11.0827 2.15769V3.48173Z" fill="white"/>
</symbol><symbol id="logo" viewBox="0 0 79 24">
<path d="M9.10232 0.622101C12.2456 0.622101 14.8649 1.72442 16.9604 3.92906C19.0778 6.1337 20.1364 8.8513 20.1364 12.0819C20.1364 15.3124 19.0778 18.03 16.9604 20.2347C14.8649 22.4393 12.2456 23.5416 9.10232 23.5416H0V0.622101H9.10232ZM9.10232 19.2196C11.0887 19.2196 12.704 18.5648 13.9482 17.2551C15.1924 15.9236 15.8145 14.1992 15.8145 12.0819C15.8145 9.96453 15.1924 8.25102 13.9482 6.94134C12.704 5.60982 11.0887 4.94407 9.10232 4.94407H4.51842V19.2196H9.10232Z" fill="white"/>
<path d="M26.714 17.0914C27.2815 19.1432 28.8204 20.1692 31.3307 20.1692C32.9459 20.1692 34.1683 19.6235 34.9978 18.5321L38.403 20.4966C36.7877 22.8322 34.4084 24 31.2652 24C28.5585 24 26.3866 23.1814 24.7495 21.5443C23.1124 19.9072 22.2938 17.8445 22.2938 15.3561C22.2938 12.8895 23.1015 10.8377 24.7167 9.20055C26.332 7.54161 28.4057 6.71214 30.9378 6.71214C33.3388 6.71214 35.3143 7.54161 36.8641 9.20055C38.4357 10.8595 39.2215 12.9113 39.2215 15.3561C39.2215 15.9018 39.167 16.4802 39.0578 17.0914H26.714ZM26.6485 13.8172H34.9978C34.7577 12.704 34.2556 11.8745 33.4916 11.3288C32.7495 10.7831 31.8982 10.5102 30.9378 10.5102C29.8027 10.5102 28.8641 10.8049 28.1219 11.3943C27.3798 11.9618 26.8886 12.7694 26.6485 13.8172Z" fill="white"/>
<path d="M45.4269 11.8199C45.4269 12.2565 45.7107 12.6166 46.2782 12.9004C46.8676 13.1623 47.577 13.4025 48.4065 13.6207C49.2359 13.8172 50.0654 14.0791 50.8949 14.4065C51.7243 14.7121 52.4228 15.236 52.9904 15.9782C53.5797 16.7203 53.8744 17.648 53.8744 18.7613C53.8744 20.442 53.2414 21.7408 51.9754 22.6576C50.7312 23.5525 49.1704 24 47.2932 24C43.9317 24 41.6397 22.7012 40.4174 20.1037L44.0845 18.0409C44.5647 19.4598 45.6343 20.1692 47.2932 20.1692C48.7994 20.1692 49.5524 19.6999 49.5524 18.7613C49.5524 18.3247 49.2578 17.9754 48.6684 17.7135C48.1009 17.4297 47.4024 17.1787 46.5729 16.9604C45.7434 16.7422 44.914 16.4693 44.0845 16.1419C43.255 15.8145 42.5456 15.3015 41.9563 14.603C41.3887 13.8827 41.105 12.9877 41.105 11.9181C41.105 10.3029 41.6943 9.03683 42.873 8.12006C44.0736 7.18145 45.5579 6.71214 47.326 6.71214C48.6575 6.71214 49.8689 7.01774 50.9603 7.62892C52.0518 8.21828 52.914 9.06958 53.547 10.1828L49.9453 12.1473C49.4215 11.0341 48.5483 10.4775 47.326 10.4775C46.7803 10.4775 46.3219 10.5975 45.9508 10.8377C45.6015 11.0778 45.4269 11.4052 45.4269 11.8199Z" fill="white"/>
<path d="M71.6849 23.5416H66.7735L60.8145 16.1091V23.5416H56.5907V0.622101H60.8145V14.3738L66.4461 7.17053H71.4884L64.9072 15.2578L71.6849 23.5416Z" fill="white"/>
<path d="M75.8886 5.206C75.1901 5.206 74.579 4.95498 74.0551 4.45293C73.553 3.92906 73.302 3.31787 73.302 2.61937C73.302 1.92087 73.553 1.30969 74.0551 0.785811C74.579 0.261937 75.1901 0 75.8886 0C76.609 0 77.2202 0.261937 77.7222 0.785811C78.2461 1.30969 78.508 1.92087 78.508 2.61937C78.508 3.31787 78.2461 3.92906 77.7222 4.45293C77.2202 4.95498 76.609 5.206 75.8886 5.206ZM73.7931 23.5416V7.17053H78.0169V23.5416H73.7931Z" fill="white"/>
</symbol><symbol id="phone" viewBox="0 0 18 18">
<path d="M16.7448 12.8117V15.1867C16.7457 15.4072 16.7005 15.6255 16.6122 15.8275C16.5238 16.0295 16.3943 16.2108 16.2318 16.3599C16.0694 16.5089 15.8775 16.6224 15.6687 16.6931C15.4598 16.7637 15.2385 16.7899 15.0189 16.7701C12.5828 16.5054 10.2428 15.6729 8.18684 14.3397C6.27404 13.1242 4.65232 11.5025 3.43684 9.58966C2.09891 7.52436 1.26628 5.17295 1.00643 2.72591C0.986642 2.50699 1.01266 2.28635 1.08282 2.07803C1.15298 1.86971 1.26575 1.67829 1.41395 1.51594C1.56214 1.3536 1.74252 1.22389 1.94359 1.13507C2.14467 1.04626 2.36203 1.00028 2.58184 1.00008H4.95684C5.34104 0.996295 5.71351 1.13235 6.00482 1.38287C6.29613 1.6334 6.4864 1.98131 6.54018 2.36174C6.64042 3.1218 6.82632 3.86807 7.09434 4.58633C7.20086 4.86968 7.22391 5.17763 7.16077 5.47369C7.09763 5.76975 6.95094 6.0415 6.73809 6.25674L5.73268 7.26216C6.85966 9.24413 8.5007 10.8852 10.4827 12.0122L11.4881 11.0067C11.7033 10.7939 11.9751 10.6472 12.2711 10.5841C12.5672 10.5209 12.8752 10.544 13.1585 10.6505C13.8768 10.9185 14.623 11.1044 15.3831 11.2047C15.7677 11.2589 16.1189 11.4526 16.3699 11.7489C16.621 12.0452 16.7544 12.4235 16.7448 12.8117Z" stroke="#34487D" fill="transparent" stroke-width="2" stroke-linecap="round" stroke-linejoin="round"/>
</symbol><symbol id="play" viewBox="0 0 24 24">
<path d="M5 3L19 12L5 21V3Z" stroke="white" fill="transparent" stroke-width="2" stroke-linecap="round" stroke-linejoin="round"/>
</symbol><symbol id="pointer-2" viewBox="0 0 40 43">
<path opacity="0.4" d="M38.9149 32.9753C29.5661 33.3932 8.89483 29.2753 1.00001 9.46056" fill="transparent" stroke="white"/>
</symbol><symbol id="pointer" viewBox="0 0 40 43">
<path opacity="0.4" d="M38.9149 32.9748C29.5661 33.3927 8.89483 29.2748 1.00001 9.46007" stroke="white" fill="transparent" stroke-dasharray="2 2"/>
</symbol><symbol id="truck" viewBox="0 0 45 45">
<path d="M5.625 22.5H22.5V25.3125H5.625V22.5Z" fill="#4e71f0"/>
<path d="M2.8125 15.4688H16.875V18.2812H2.8125V15.4688Z" fill="#4e71f0"/>
<path d="M42.0736 23.3522L37.8549 13.5084C37.7466 13.2554 37.5664 13.0398 37.3367 12.8883C37.1069 12.7368 36.8377 12.6561 36.5625 12.6562H32.3438V9.84375C32.3438 9.47079 32.1956 9.1131 31.9319 8.84938C31.6682 8.58566 31.3105 8.4375 30.9375 8.4375H8.43751V11.25H29.5313V28.9069C28.8905 29.279 28.3297 29.7742 27.8813 30.3641C27.4328 30.954 27.1056 31.6268 26.9185 32.3438H18.0816C17.7393 31.0181 16.9253 29.8629 15.7922 29.0945C14.6591 28.3261 13.2846 27.9973 11.9264 28.1698C10.5682 28.3423 9.31961 29.0043 8.41456 30.0315C7.50951 31.0588 7.01019 32.3809 7.01019 33.75C7.01019 35.1191 7.50951 36.4412 8.41456 37.4685C9.31961 38.4957 10.5682 39.1577 11.9264 39.3302C13.2846 39.5027 14.6591 39.1739 15.7922 38.4055C16.9253 37.6371 17.7393 36.4819 18.0816 35.1562H26.9185C27.2244 36.3631 27.924 37.4336 28.9066 38.1982C29.8892 38.9628 31.0987 39.378 32.3438 39.378C33.5888 39.378 34.7983 38.9628 35.781 38.1982C36.7636 37.4336 37.4632 36.3631 37.7691 35.1562H40.7813C41.1542 35.1562 41.5119 35.0081 41.7756 34.7444C42.0394 34.4806 42.1875 34.123 42.1875 33.75V23.9062C42.1876 23.7157 42.1488 23.5272 42.0736 23.3522ZM12.6563 36.5625C12.1 36.5625 11.5562 36.3975 11.0937 36.0885C10.6312 35.7795 10.2707 35.3402 10.0579 34.8263C9.84498 34.3124 9.78928 33.7469 9.8978 33.2013C10.0063 32.6557 10.2742 32.1546 10.6675 31.7613C11.0609 31.3679 11.562 31.1001 12.1076 30.9915C12.6531 30.883 13.2186 30.9387 13.7326 31.1516C14.2465 31.3645 14.6857 31.7249 14.9948 32.1875C15.3038 32.65 15.4688 33.1937 15.4688 33.75C15.468 34.4957 15.1715 35.2106 14.6442 35.7379C14.1169 36.2652 13.402 36.5618 12.6563 36.5625ZM32.3438 15.4688H35.6344L38.6494 22.5H32.3438V15.4688ZM32.3438 36.5625C31.7875 36.5625 31.2437 36.3975 30.7812 36.0885C30.3187 35.7795 29.9582 35.3402 29.7454 34.8263C29.5325 34.3124 29.4768 33.7469 29.5853 33.2013C29.6938 32.6557 29.9617 32.1546 30.355 31.7613C30.7484 31.3679 31.2495 31.1001 31.7951 30.9915C32.3406 30.883 32.9061 30.9387 33.4201 31.1516C33.934 31.3645 34.3732 31.7249 34.6823 32.1875C34.9913 32.65 35.1563 33.1937 35.1563 33.75C35.1555 34.4957 34.859 35.2106 34.3317 35.7379C33.8044 36.2652 33.0895 36.5618 32.3438 36.5625ZM39.375 32.3438H37.7691C37.4593 31.1392 36.7586 30.0715 35.7768 29.308C34.7949 28.5445 33.5875 28.1285 32.3438 28.125V25.3125H39.375V32.3438Z" fill="#4e71f0"/>
</symbol></svg>